<?xml version="1.0" encoding="UTF-8"?>
<svg version="1.1" xmlns="http://www.w3.org/2000/svg" width="736" height="756">
<path d="M0 0 C242.88 0 485.76 0 736 0 C736 249.48 736 498.96 736 756 C493.12 756 250.24 756 0 756 C0 506.52 0 257.04 0 0 Z " fill="#0A0A0A" transform="translate(0,0)"/>
<path d="M0 0 C3.4060609 3.06791406 6.31669755 6.36318041 9.1640625 9.94921875 C10.17533203 11.17125 10.17533203 11.17125 11.20703125 12.41796875 C27.74244524 33.255517 35.69884239 57.27123579 41.1640625 82.94921875 C41.33719971 83.73014893 41.51033691 84.5110791 41.6887207 85.31567383 C43.17712201 92.2914512 43.98584816 99.29702437 44.7265625 106.38671875 C44.85224609 107.51787109 44.97792969 108.64902344 45.10742188 109.81445312 C46.92719331 126.91649357 47.36698538 144.01242314 47.3515625 161.19921875 C47.35195526 162.14176514 47.35234802 163.08431152 47.35275269 164.05541992 C47.34665352 176.31915776 46.98799567 188.39679912 45.671875 200.59765625 C44.87931165 208.16879781 44.72566026 215.77554856 44.50610352 223.38085938 C44.3482113 228.64875424 44.11626193 233.8875186 43.68310547 239.140625 C41.71625062 264.24159797 41.97627121 289.45681646 41.97875977 314.61621094 C41.97884095 318.9108502 41.97189551 323.2053826 41.95825195 327.5 C41.86637933 356.9177937 41.88846457 386.21332223 45.71076965 415.43215942 C46.29049708 419.93021357 46.74207068 424.43419465 47.1640625 428.94921875 C47.89055329 436.51206124 48.77526482 444.03792506 49.796875 451.56640625 C50.1640625 454.94921875 50.1640625 454.94921875 50.1640625 460.94921875 C-50.8159375 460.94921875 -151.7959375 460.94921875 -255.8359375 460.94921875 C-254.50648395 452.97249743 -253.08980144 445.09574141 -251.3984375 437.19921875 C-248.11262409 421.81705126 -245.3740543 406.47167316 -243.2734375 390.88671875 C-243.06350752 389.35216473 -242.85322171 387.81765935 -242.64257812 386.28320312 C-241.84051148 380.42589799 -241.04873515 374.5672744 -240.27392578 368.70629883 C-240.1847438 368.03260757 -240.09556183 367.35891632 -240.00367737 366.66481018 C-239.76324813 364.84470626 -239.52426854 363.02441101 -239.28540039 361.20410156 C-238.8494765 358.04726438 -238.34944718 354.90674855 -237.8359375 351.76171875 C-236.9957652 346.41749234 -236.43036918 341.07826224 -235.921875 335.6953125 C-235.04171776 326.64948892 -233.95111418 317.64352962 -232.77679443 308.63189697 C-230.63232624 292.11555516 -228.82560651 275.58371765 -227.21972656 259.00708008 C-227.06066627 257.36668764 -226.90148868 255.72630657 -226.7421875 254.0859375 C-226.66546814 253.29578751 -226.58874878 252.50563751 -226.50970459 251.69154358 C-225.82893292 244.74628113 -225.03877384 237.81595688 -224.2109375 230.88671875 C-222.94857812 220.2563679 -221.94047817 209.61963091 -221.07861328 198.94970703 C-220.81391941 195.67698306 -220.54178426 192.40491588 -220.26953125 189.1328125 C-220.08291564 186.86331556 -219.89670856 184.59378498 -219.7109375 182.32421875 C-219.62320068 181.26259521 -219.53546387 180.20097168 -219.44506836 179.10717773 C-219.36522705 178.11403564 -219.28538574 177.12089355 -219.203125 176.09765625 C-219.13206543 175.22286621 -219.06100586 174.34807617 -218.98779297 173.44677734 C-218.8354291 170.94085718 -218.80949407 168.45909384 -218.8359375 165.94921875 C-219.89683594 165.59472656 -220.95773437 165.24023438 -222.05078125 164.875 C-288.59841432 142.27516025 -288.59841432 142.27516025 -315.2265625 121.015625 C-317.84545412 118.88386984 -317.84545412 118.88386984 -320.8359375 116.94921875 C-320.8359375 116.28921875 -320.8359375 115.62921875 -320.8359375 114.94921875 C-319.64331299 114.89386963 -318.45068848 114.83852051 -317.22192383 114.78149414 C-312.68725 114.57100826 -308.15258395 114.36035523 -303.61791992 114.1496582 C-301.67586466 114.05944516 -299.73380745 113.96927416 -297.79174805 113.87915039 C-296.85951416 113.83588623 -295.92728027 113.79262207 -294.96679688 113.74804688 C-294.03244308 113.70471725 -293.09808929 113.66138763 -292.13542175 113.616745 C-290.22646787 113.52784706 -288.31754272 113.43833011 -286.40864563 113.34822083 C-281.74638765 113.12841067 -277.08412609 112.91587131 -272.4206543 112.72338867 C-261.39610022 112.25680067 -250.43245646 111.52087762 -239.45581055 110.38452148 C-236.9789661 110.13218814 -234.50055621 109.90311624 -232.02148438 109.67382812 C-230.41131492 109.51052248 -228.80128224 109.34586123 -227.19140625 109.1796875 C-226.46737106 109.11597458 -225.74333588 109.05226166 -224.99736023 108.98661804 C-215.94500235 107.98577447 -209.66624102 103.7750691 -203.8359375 96.94921875 C-201.88623901 94.46882513 -200.12354894 91.90229589 -198.3984375 89.26171875 C-197.89892578 88.50697266 -197.39941406 87.75222656 -196.88476562 86.97460938 C-192.22954078 79.8079388 -188.03174104 72.38921182 -183.8359375 64.94921875 C-172.29893749 44.49630225 -159.88628215 27.78562999 -143.13037109 11.27929688 C-139.44983516 7.64206136 -136.04228436 4.01686421 -132.8359375 -0.05078125 C-96.04810708 -34.56520642 -37.23670932 -30.86886815 0 0 Z " fill="#FEFEFE" transform="translate(613.8359375,295.05078125)"/>
<path d="M0 0 C4.89726427 4.1354676 6.71986798 7.29205719 7.375 13.625 C7.11375038 21.76984101 3.73645319 29.43834488 -1.89453125 35.2734375 C-8.32782168 40.54897437 -15.27965166 42.79161736 -23.5546875 42.35546875 C-28.24585376 41.67352605 -30.98224638 40.04602456 -34.25 36.6875 C-38.05956331 30.83709921 -39.07677658 24.85483662 -38 18 C-34.82172197 8.82739612 -29.88602401 2.00841227 -21.1875 -2.4375 C-13.60873927 -3.77492836 -6.75532268 -3.91808715 0 0 Z " fill="#050505" transform="translate(540,366)"/>
<path d="M0 0 C0.66 1.32 1.32 2.64 2 4 C1.401875 4.268125 0.80375 4.53625 0.1875 4.8125 C-3.22084219 6.6627429 -4.85142361 8.77713542 -7 12 C-7.99 12 -8.98 12 -10 12 C-9.61328125 11.55269531 -9.2265625 11.10539062 -8.828125 10.64453125 C-5.81609925 7.1478974 -2.85678969 3.62592537 0 0 Z " fill="#E6E6E6" transform="translate(481,295)"/>
<path d="M0 0 C2.64 0 5.28 0 8 0 C6.68 1.65 5.36 3.3 4 5 C2 3.625 2 3.625 0 2 C0 1.34 0 0.68 0 0 Z " fill="#CBCBCB" transform="translate(293,410)"/>
<path d="M0 0 C0.33 1.32 0.66 2.64 1 4 C-0.9375 6.75 -0.9375 6.75 -3 9 C-3.66 8.67 -4.32 8.34 -5 8 C-3.35 5.36 -1.7 2.72 0 0 Z " fill="#DDDDDD" transform="translate(445,335)"/>
</svg>
