<?xml version="1.0" encoding="UTF-8"?>
<svg version="1.1" xmlns="http://www.w3.org/2000/svg" width="4096" height="4096">
<path d="M0 0 C1.68115012 -0.00111902 3.36229999 -0.00267562 5.04344935 -0.0046259 C9.65854861 -0.00871586 14.27362722 -0.00660969 18.88872646 -0.00348004 C23.93007505 -0.00117192 28.97142022 -0.00468725 34.01276812 -0.00744686 C42.88087296 -0.01149804 51.74897194 -0.01182763 60.61707737 -0.00974091 C73.89305414 -0.00663413 87.16902553 -0.0092785 100.4450019 -0.01303962 C123.07085235 -0.01927765 145.69670058 -0.02075248 168.32255155 -0.01962215 C191.25573457 -0.01849007 214.18891597 -0.01952236 237.12209874 -0.02319461 C238.58450661 -0.0234266 240.04691447 -0.02365858 241.50932234 -0.02389053 C247.40580337 -0.02483007 253.30228441 -0.02578637 259.19876544 -0.02676172 C275.8202008 -0.02950706 292.44163621 -0.03188648 309.06307167 -0.03401369 C309.82473949 -0.03411124 310.58640731 -0.03420879 311.37115598 -0.03430929 C354.6894521 -0.03981463 398.00774831 -0.0401189 441.32604472 -0.04053015 C447.94779028 -0.0405934 454.56953584 -0.04065993 461.1912814 -0.04073071 C462.85097136 -0.0407484 464.51066132 -0.04076577 466.17035128 -0.04078283 C503.41744894 -0.0411706 540.66454641 -0.04334913 577.91164398 -0.04591308 C586.22430397 -0.04648464 594.53696396 -0.04703862 602.84962395 -0.04759372 C604.08733616 -0.0476764 604.08733616 -0.0476764 605.35005266 -0.04776075 C610.3588145 -0.04809525 615.36757634 -0.04842902 620.37633818 -0.04876231 C622.88546065 -0.0489294 625.39458311 -0.0490969 627.90370558 -0.04926445 C666.91617988 -0.05186634 705.9286542 -0.05409663 744.94112855 -0.05594665 C746.21617157 -0.0560072 746.21617157 -0.0560072 747.51697304 -0.05606898 C801.68438151 -0.05863213 855.85178989 -0.05953148 910.01919842 -0.05926865 C912.68280195 -0.05925589 915.34640547 -0.05924393 918.010009 -0.05923224 C936.72293134 -0.0591499 955.43585369 -0.05904719 974.14877604 -0.05893936 C979.51418109 -0.05890859 984.87958614 -0.05887852 990.24499119 -0.05884854 C994.72043892 -0.05882345 999.19588665 -0.05879766 1003.67133438 -0.05877043 C1088.20408997 -0.05825899 1172.7368446 -0.0596773 1257.26959974 -0.06911784 C1258.60460044 -0.06926688 1258.60460044 -0.06926688 1259.96657086 -0.06941893 C1287.77459141 -0.0725303 1315.58261193 -0.07589679 1343.39063245 -0.07931072 C1371.92393825 -0.08281214 1400.45724404 -0.0862826 1428.99054986 -0.08957511 C1430.30838835 -0.0897274 1430.30838835 -0.0897274 1431.65284984 -0.08988277 C1486.67430181 -0.09623188 1541.6957535 -0.10015378 1596.71720582 -0.1014331 C1597.5669867 -0.10145313 1598.41676758 -0.10147315 1599.29229939 -0.10149379 C1636.61240516 -0.10236911 1673.93251092 -0.10268888 1711.2526167 -0.1024029 C1726.26644775 -0.10228862 1741.28027881 -0.10223255 1756.29410987 -0.10219958 C1758.78346573 -0.10219318 1761.27282159 -0.1021841 1763.76217745 -0.10217443 C1801.83833404 -0.10203794 1839.91448976 -0.10338369 1877.99064595 -0.10921961 C1878.811737 -0.10934528 1879.63282805 -0.10947095 1880.47880065 -0.10960043 C1893.68696362 -0.11162944 1906.89512657 -0.11377347 1920.10328951 -0.11592724 C1957.59973077 -0.12203655 1995.09617086 -0.12707987 2032.59261268 -0.12495607 C2033.35351179 -0.12491336 2034.11441089 -0.12487064 2034.89836754 -0.12482664 C2051.4990774 -0.12387326 2068.09978715 -0.12235741 2084.70049691 -0.12028992 C2091.3213966 -0.11947361 2097.9422963 -0.11872998 2104.563196 -0.11800891 C2105.64653273 -0.11788793 2105.64653273 -0.11788793 2106.75175506 -0.11776451 C2129.65320599 -0.1152414 2152.55465041 -0.11885679 2175.45610021 -0.12602673 C2198.63261768 -0.13325604 2221.80912511 -0.13357804 2244.98564332 -0.12548796 C2258.17072225 -0.12109933 2271.35577333 -0.12219541 2284.54084996 -0.13135475 C2293.29485097 -0.13689049 2302.04883116 -0.1351871 2310.80283056 -0.12757196 C2315.76690411 -0.12345689 2320.73092279 -0.12243044 2325.69499301 -0.13032265 C2330.20700081 -0.13743742 2334.71890768 -0.13519979 2339.2309104 -0.12578896 C2340.84128393 -0.12401235 2342.4516657 -0.12550331 2344.06203126 -0.13087509 C2358.13866585 -0.17462652 2373.197397 -0.08596927 2386.54615003 4.81399983 C2387.28671643 5.07455159 2388.02728284 5.33510335 2388.79029065 5.60355061 C2399.53611663 9.54104158 2408.58662948 15.62234411 2417.17115003 23.12649983 C2417.84661878 23.70657796 2418.52208753 24.28665608 2419.21802503 24.88431233 C2435.94481019 40.33986182 2443.96273507 62.8324242 2445.17115003 85.12649983 C2445.30546992 90.69993021 2445.30620504 96.27036693 2445.29764986 101.84512603 C2445.29876859 103.52651352 2445.300325 105.20790077 2445.30227576 106.8892875 C2445.30636973 111.50971461 2445.30425766 116.13012112 2445.3011299 120.75054821 C2445.29882347 125.79594754 2445.30233631 130.84134345 2445.30509672 135.88674209 C2445.30914942 144.76354062 2445.30947681 153.6403333 2445.30739077 162.51713242 C2445.304285 175.80612472 2445.30692759 189.09511164 2445.31068948 202.38410354 C2445.31692863 225.03170458 2445.31840217 247.67930339 2445.31727201 270.32690495 C2445.31614005 293.28308297 2445.31717181 316.23925937 2445.32084447 339.19543713 C2445.32107646 340.65914972 2445.32130844 342.1228623 2445.32154039 343.58657488 C2445.32247993 349.48828773 2445.32343622 355.39000059 2445.32441158 361.29171344 C2445.32715696 377.92810936 2445.32953637 394.56450532 2445.33166355 411.20090133 C2445.3317611 411.96326549 2445.33185865 412.72562965 2445.33195915 413.51109576 C2445.33746488 456.87213042 2445.33776877 500.23316517 2445.33818002 543.59420012 C2445.33824326 550.22263998 2445.33830979 556.85107983 2445.33838057 563.47951969 C2445.33839826 565.14088159 2445.33841564 566.80224349 2445.33843269 568.46360539 C2445.33882044 605.74603803 2445.34099889 643.02847049 2445.34356294 680.31090304 C2445.3441345 688.63110366 2445.34468848 696.95130429 2445.34524358 705.27150491 C2445.3452987 706.09739354 2445.34535382 706.92328216 2445.34541061 707.77419771 C2445.34574511 712.78748879 2445.34607888 717.80077987 2445.34641218 722.81407094 C2445.34657926 725.32545763 2445.34674676 727.83684432 2445.34691431 730.34823101 C2445.34951621 769.39612293 2445.3517465 808.44401486 2445.35359651 847.49190682 C2445.35363688 848.34271195 2445.35367725 849.19351708 2445.35371884 850.07010418 C2445.35628204 904.28806677 2445.35718133 958.50602925 2445.35691851 1012.7239919 C2445.35690575 1015.39013655 2445.35689379 1018.0562812 2445.3568821 1020.72242584 C2445.35679976 1039.45325878 2445.35669705 1058.18409172 2445.35658922 1076.91492465 C2445.35655845 1082.28548021 2445.35652839 1087.65603576 2445.3564984 1093.02659132 C2445.35647331 1097.50633573 2445.35644752 1101.98608014 2445.35642029 1106.46582455 C2445.35590885 1191.07995067 2445.35732716 1275.69407583 2445.3667677 1360.30820149 C2445.36691674 1361.64448703 2445.36691674 1361.64448703 2445.36706879 1363.00776823 C2445.37018016 1390.84251147 2445.37354664 1418.67725467 2445.37696058 1446.51199788 C2445.38046199 1475.07263725 2445.38393245 1503.63327663 2445.38722497 1532.19391602 C2445.3873265 1533.0733132 2445.38742802 1533.95271039 2445.38753263 1534.85875597 C2445.39388161 1589.93154634 2445.39780361 1645.00433644 2445.39908296 1700.07712716 C2445.39910299 1700.92768444 2445.39912301 1701.77824171 2445.39914365 1702.65457345 C2445.40001896 1740.00855783 2445.40033875 1777.3625422 2445.40005276 1814.71652659 C2445.39993848 1829.74394215 2445.39988241 1844.77135771 2445.39984944 1859.79877327 C2445.39984304 1862.29038817 2445.39983396 1864.78200308 2445.39982429 1867.27361799 C2445.3996878 1905.38594573 2445.40103389 1943.4982726 2445.40686947 1981.61059994 C2445.40705798 1982.84347764 2445.40705798 1982.84347764 2445.40725029 1984.10126197 C2445.40927931 1997.32281419 2445.41142334 2010.5443664 2445.4135771 2023.76591861 C2445.41968618 2061.29910682 2445.42472987 2098.83229386 2445.42260593 2136.36548263 C2445.42256322 2137.12707747 2445.42252051 2137.88867231 2445.4224765 2138.67334579 C2445.42152313 2155.28896798 2445.4200073 2171.90459008 2445.41793978 2188.52021217 C2445.41712346 2195.14699385 2445.41637983 2201.77377553 2445.41565877 2208.40055722 C2445.41557812 2209.1234249 2445.41549747 2209.84629259 2445.41541437 2210.59106535 C2445.41289097 2233.51563743 2445.41650736 2256.44020301 2445.42367659 2279.36477396 C2445.43090474 2302.56323236 2445.43122929 2325.76168073 2445.42313782 2348.96013987 C2445.41874812 2362.15877967 2445.41984783 2375.35739163 2445.42900461 2388.55602914 C2445.43453817 2397.31774631 2445.43283977 2406.07944268 2445.42522182 2414.84115825 C2445.42110463 2419.8104414 2445.42008593 2424.77966971 2445.42797251 2429.74894955 C2445.43508037 2434.26450238 2445.43285803 2438.77995428 2445.42343883 2443.29550202 C2445.42166026 2444.90827794 2445.42315939 2446.52106208 2445.42852495 2448.13383007 C2445.47124702 2461.91415536 2445.22745394 2476.35177468 2440.48365003 2489.43899983 C2440.22309827 2490.18407796 2439.96254651 2490.92915608 2439.69409925 2491.69681233 C2435.77041014 2502.47009506 2429.68912753 2511.5261676 2422.17115003 2520.12649983 C2421.5910719 2520.80196858 2421.01099378 2521.47743733 2420.41333753 2522.17337483 C2404.62038535 2539.26531442 2381.88435917 2546.9707717 2359.17115003 2548.12649983 C2353.56090194 2548.25847023 2347.95381964 2548.26163392 2342.34230006 2548.25299966 C2340.66114994 2548.25411868 2338.98000007 2548.25567528 2337.29885071 2548.25762557 C2332.68375144 2548.26171552 2328.06867284 2548.25960935 2323.4535736 2548.2564797 C2318.41222501 2548.25417159 2313.37087984 2548.25768691 2308.32953194 2548.26044652 C2299.4614271 2548.26449771 2290.59332812 2548.26482729 2281.72522268 2548.26274057 C2268.44924592 2548.2596338 2255.17327453 2548.26227816 2241.89729815 2548.26603928 C2219.27144771 2548.27227732 2196.64559948 2548.27375214 2174.01974851 2548.27262181 C2151.08656549 2548.27148973 2128.15338408 2548.27252203 2105.22020131 2548.27619427 C2103.75779345 2548.27642627 2102.29538558 2548.27665824 2100.83297772 2548.27689019 C2094.93649668 2548.27782973 2089.04001565 2548.27878603 2083.14353462 2548.27976138 C2066.52209926 2548.28250672 2049.90066385 2548.28488614 2033.27922839 2548.28701335 C2032.51756057 2548.2871109 2031.75589274 2548.28720845 2030.97114408 2548.28730896 C1987.65284796 2548.29281429 1944.33455174 2548.29311856 1901.01625533 2548.29352982 C1894.39450977 2548.29359307 1887.77276422 2548.29365959 1881.15101866 2548.29373037 C1879.4913287 2548.29374806 1877.83163874 2548.29376544 1876.17194877 2548.29378249 C1838.92485111 2548.29417026 1801.67775364 2548.2963488 1764.43065608 2548.29891275 C1756.11799609 2548.29948431 1747.8053361 2548.30003828 1739.49267611 2548.30059338 C1738.25496389 2548.30067606 1738.25496389 2548.30067606 1736.99224739 2548.30076041 C1731.98348556 2548.30109492 1726.97472372 2548.30142868 1721.96596188 2548.30176198 C1719.45683941 2548.30192906 1716.94771695 2548.30209657 1714.43859448 2548.30226412 C1675.42612018 2548.304866 1636.41364585 2548.3070963 1597.40117151 2548.30894631 C1596.12612849 2548.30900687 1596.12612849 2548.30900687 1594.82532702 2548.30906865 C1540.65791854 2548.31163179 1486.49051017 2548.31253114 1432.32310164 2548.31226831 C1429.65949811 2548.31225556 1426.99589459 2548.3122436 1424.33229106 2548.3122319 C1405.61936871 2548.31214956 1386.90644637 2548.31204685 1368.19352402 2548.31193902 C1362.82811897 2548.31190825 1357.46271392 2548.31187819 1352.09730887 2548.31184821 C1347.62186114 2548.31182311 1343.14641341 2548.31179732 1338.67096568 2548.3117701 C1254.13821009 2548.31125866 1169.60545546 2548.31267697 1085.07270032 2548.32211751 C1083.73769961 2548.32226655 1083.73769961 2548.32226655 1082.3757292 2548.32241859 C1054.56770864 2548.32552996 1026.75968812 2548.32889645 998.95166761 2548.33231038 C970.41836181 2548.3358118 941.88505601 2548.33928227 913.3517502 2548.34257478 C912.4731912 2548.3426763 911.59463221 2548.34277783 910.68945022 2548.34288243 C855.66799825 2548.34923154 800.64654656 2548.35315344 745.62509423 2548.35443276 C744.77531336 2548.35445279 743.92553248 2548.35447282 743.05000067 2548.35449345 C705.7298949 2548.35536877 668.40978914 2548.35568855 631.08968336 2548.35540257 C616.0758523 2548.35528828 601.06202125 2548.35523222 586.04819019 2548.35519925 C583.55883433 2548.35519284 581.06947847 2548.35518377 578.58012261 2548.3551741 C540.50396602 2548.3550376 502.4278103 2548.35638336 464.35165411 2548.36221927 C463.53056306 2548.36234495 462.70947201 2548.36247062 461.86349941 2548.3626001 C448.65533644 2548.36462911 435.44717349 2548.36677313 422.23901054 2548.36892691 C384.74256929 2548.37503622 347.2461292 2548.38007953 309.74968737 2548.37795573 C308.98878827 2548.37791302 308.22788917 2548.37787031 307.44393251 2548.3778263 C290.84322266 2548.37687292 274.2425129 2548.37535708 257.64180315 2548.37328959 C251.02090346 2548.37247327 244.40000376 2548.37172964 237.77910405 2548.37100857 C237.05687957 2548.37092792 236.33465508 2548.37084727 235.590545 2548.37076418 C212.68909407 2548.36824107 189.78764964 2548.37185645 166.88619985 2548.37902639 C143.70968237 2548.38625571 120.53317495 2548.3865777 97.35665673 2548.37848763 C84.1715778 2548.374099 70.98652673 2548.37519508 57.8014501 2548.38435441 C49.04744909 2548.38989015 40.2934689 2548.38818677 31.5394695 2548.38057163 C26.57539595 2548.37645655 21.61137727 2548.3754301 16.64730705 2548.38332232 C12.13529924 2548.39043708 7.62339238 2548.38819946 3.11138966 2548.37878863 C1.50101612 2548.37701201 -0.10936565 2548.37850298 -1.7197312 2548.38387476 C-15.79636579 2548.42762618 -30.85509694 2548.33896893 -44.20384997 2543.43899983 C-44.94441638 2543.17844807 -45.68498278 2542.91789632 -46.4479906 2542.64944905 C-57.19381657 2538.71195808 -66.24432942 2532.63065555 -74.82884997 2525.12649983 C-75.50431872 2524.54642171 -76.17978747 2523.96634358 -76.87572497 2523.36868733 C-93.60251014 2507.91313784 -101.62043501 2485.42057547 -102.82884997 2463.12649983 C-102.96316986 2457.55306945 -102.96390498 2451.98263274 -102.9553498 2446.40787363 C-102.95646853 2444.72648614 -102.95802494 2443.0450989 -102.95997571 2441.36371217 C-102.96406968 2436.74328505 -102.96195761 2432.12287855 -102.95882984 2427.50245145 C-102.95652341 2422.45705212 -102.96003625 2417.41165622 -102.96279666 2412.36625758 C-102.96684936 2403.48945904 -102.96717676 2394.61266636 -102.96509071 2385.73586724 C-102.96198494 2372.44687494 -102.96462753 2359.15788803 -102.96838942 2345.86889612 C-102.97462857 2323.22129509 -102.97610212 2300.57369627 -102.97497195 2277.92609471 C-102.97383999 2254.9699167 -102.97487176 2232.01374029 -102.97854441 2209.05756253 C-102.97877641 2207.59384995 -102.97900838 2206.13013737 -102.97924033 2204.66642478 C-102.98017987 2198.76471193 -102.98113617 2192.86299908 -102.98211152 2186.96128623 C-102.98485691 2170.32489031 -102.98723631 2153.68849434 -102.98936349 2137.05209833 C-102.98946104 2136.28973417 -102.98955859 2135.52737001 -102.9896591 2134.74190391 C-102.99516483 2091.38086924 -102.99546871 2048.01983449 -102.99587996 2004.65879955 C-102.9959432 1998.03035969 -102.99600973 1991.40191983 -102.99608051 1984.77347997 C-102.9960982 1983.11211807 -102.99611558 1981.45075618 -102.99613263 1979.78939428 C-102.99652038 1942.50696163 -102.99869883 1905.22452917 -103.00126289 1867.94209662 C-103.00183445 1859.621896 -103.00238842 1851.30169537 -103.00294352 1842.98149475 C-103.00299864 1842.15560613 -103.00305376 1841.3297175 -103.00311055 1840.47880195 C-103.00344506 1835.46551087 -103.00377882 1830.4522198 -103.00411212 1825.43892872 C-103.0042792 1822.92754203 -103.00444671 1820.41615534 -103.00461426 1817.90476866 C-103.00721616 1778.85687674 -103.00944645 1739.8089848 -103.01129645 1700.76109284 C-103.01133682 1699.91028771 -103.01137719 1699.05948259 -103.01141879 1698.18289549 C-103.01398198 1643.9649329 -103.01488128 1589.74697041 -103.01461845 1535.52900777 C-103.0146057 1532.86286312 -103.01459373 1530.19671847 -103.01458204 1527.53057382 C-103.0144997 1508.79974088 -103.01439699 1490.06890795 -103.01428916 1471.33807501 C-103.01425839 1465.96751946 -103.01422833 1460.5969639 -103.01419835 1455.22640834 C-103.01417325 1450.74666393 -103.01414746 1446.26691952 -103.01412024 1441.78717511 C-103.01360879 1357.173049 -103.01502711 1272.55892383 -103.02446765 1187.94479817 C-103.02456701 1187.05394115 -103.02466636 1186.16308413 -103.02476873 1185.24523144 C-103.0278801 1157.4104882 -103.03124659 1129.57574499 -103.03466052 1101.74100178 C-103.03816193 1073.18036241 -103.04163239 1044.61972304 -103.04492491 1016.05908364 C-103.04502644 1015.17968646 -103.04512797 1014.30028928 -103.04523257 1013.3942437 C-103.05158155 958.32145333 -103.05550355 903.24866323 -103.0567829 848.1758725 C-103.05680293 847.32531523 -103.05682296 846.47475795 -103.05684359 845.59842621 C-103.05771891 808.24444183 -103.05803869 770.89045746 -103.05775271 733.53647307 C-103.05763842 718.50905752 -103.05758236 703.48164196 -103.05754939 688.4542264 C-103.05754298 685.96261149 -103.05753391 683.47099658 -103.05752424 680.97938167 C-103.05738774 642.86705393 -103.05873383 604.75472707 -103.06456941 566.64239973 C-103.06469509 565.82048126 -103.06482076 564.99856279 -103.06495024 564.1517377 C-103.06697926 550.93018547 -103.06912328 537.70863326 -103.07127705 524.48708105 C-103.07738613 486.95389284 -103.08242981 449.42070581 -103.08030587 411.88751704 C-103.08026316 411.12592219 -103.08022045 410.36432735 -103.08017644 409.57965387 C-103.07922308 392.96403168 -103.07770725 376.34840958 -103.07563973 359.73278749 C-103.0748234 353.10600581 -103.07407978 346.47922413 -103.07335871 339.85244244 C-103.07327806 339.12957476 -103.07319741 338.40670708 -103.07311432 337.66193431 C-103.07059091 314.73736223 -103.0742073 291.81279665 -103.08137653 268.88822571 C-103.08860468 245.6897673 -103.08892924 222.49131894 -103.08083777 199.29285979 C-103.07644806 186.09422 -103.07754777 172.89560803 -103.08670455 159.69697053 C-103.09223811 150.93525335 -103.09053971 142.17355698 -103.08292177 133.41184142 C-103.07880457 128.44255827 -103.07778587 123.47332995 -103.08567246 118.50405012 C-103.09278032 113.98849728 -103.09055797 109.47304538 -103.08113877 104.95749765 C-103.07936021 103.34472172 -103.08085934 101.73193758 -103.08622489 100.1191696 C-103.12894697 86.3388443 -102.88515388 71.90122498 -98.14134997 58.81399983 C-97.75052233 57.69638264 -97.75052233 57.69638264 -97.35179919 56.55618733 C-93.42811008 45.7829046 -87.34682747 36.72683207 -79.82884997 28.12649983 C-79.24877185 27.45103108 -78.66869372 26.77556233 -78.07103747 26.07962483 C-57.4777605 3.79252854 -28.77472479 -0.04427469 0 0 Z " fill="#F6DE1D" transform="translate(876.8288499712944,773.8735001683235)"/>
<path d="M0 0 C1.06025391 0.01401855 2.12050781 0.02803711 3.21289062 0.04248047 C9.16336964 0.14897428 15.06947999 0.50951989 21 1 C21.6403418 1.05136108 22.28068359 1.10272217 22.94042969 1.15563965 C115.1878424 8.59751005 195.97370368 40.91924116 266.41210938 112.59667969 C268.33790255 114.87329564 270.19401711 117.20065276 272.0390625 119.54296875 C273.88185986 121.85197182 275.80980138 124.01722864 277.8125 126.1875 C295.16623688 145.6209578 308.93368445 168.57049519 322 191 C318.12695732 195.2347276 314.06207266 197.99271961 309.125 200.875 C301.95604058 205.15805243 294.91752103 209.60312361 287.9375 214.1875 C279.69862614 219.59270058 271.43005473 224.94698477 263.125 230.25 C256.2379759 234.64836952 249.35495357 239.05178806 242.5 243.5 C230.27622054 251.42849169 217.9868497 259.25514032 205.7109375 267.10253906 C189.61014431 277.39407291 189.61014431 277.39407291 173.55786133 287.76098633 C169.23090691 290.56684863 164.89043169 293.35103851 160.54296875 296.125 C159.69576767 296.66586243 159.69576767 296.66586243 158.83145142 297.21765137 C156.0139009 299.01624759 153.19530138 300.81313815 150.375 302.60742188 C149.34761719 303.26291016 148.32023437 303.91839844 147.26171875 304.59375 C146.34350342 305.17833984 145.42528809 305.76292969 144.47924805 306.36523438 C142.00496182 307.94241256 142.00496182 307.94241256 139.85864258 309.71289062 C138 311 138 311 135 311 C133.40148846 308.58988897 132.00488807 306.22020244 130.625 303.6875 C119.85749979 284.68317543 106.92508502 267.88651687 92 252 C91.40703125 251.35289062 90.8140625 250.70578125 90.203125 250.0390625 C71.16295819 229.96205493 43.37189524 217.23410355 16.5 212.3125 C15.84821777 212.19285889 15.19643555 212.07321777 14.52490234 211.94995117 C-6.38240222 208.41931524 -29.34127868 207.98658646 -50 213 C-51.25296875 213.2784375 -52.5059375 213.556875 -53.796875 213.84375 C-79.47846418 220.02438142 -102.59078507 234.62965014 -116.85498047 257.12890625 C-125.46683809 271.20167316 -131.62496804 287.32357897 -132 304 C-132.05027344 305.20011719 -132.10054687 306.40023437 -132.15234375 307.63671875 C-132.97750306 335.30440982 -126.17666628 361.68942574 -108 383 C-107.38125 383.763125 -106.7625 384.52625 -106.125 385.3125 C-69.48106204 428.61897214 -2.39055773 449.42828616 48.30792236 470.98114014 C81.20325567 484.96700319 113.89762562 499.2606976 146 515 C147.20424644 515.58841551 148.40851143 516.17679305 149.61279297 516.76513672 C166.39207503 524.97440881 182.87457801 533.55412092 199 543 C199.83611816 543.48500977 200.67223633 543.97001953 201.53369141 544.46972656 C244.17838894 569.2473764 289.20935297 600.14866537 319.94921875 639.3984375 C321.34480178 641.16883425 322.7875812 642.90280392 324.26953125 644.6015625 C351.99408504 676.40193922 371.08149799 717.21741033 381 758 C381.27054199 759.07942871 381.54108398 760.15885742 381.81982422 761.27099609 C389.79209058 793.47756041 392.3500303 825.03021833 392.4375 858.1875 C392.44385468 859.41892731 392.45020935 860.65035461 392.45675659 861.9190979 C392.53354572 885.82844002 390.49728026 909.30252346 385.48974609 932.70068359 C385.0418479 934.80352766 384.62199452 936.91000313 384.20703125 939.01953125 C375.15452514 982.89949725 354.11603482 1025.32726141 326 1060 C325.50483887 1060.61230469 325.00967773 1061.22460938 324.49951172 1061.85546875 C317.58917876 1070.30830721 310.06349666 1078.12949118 302.375 1085.875 C301.08722656 1087.17679199 301.08722656 1087.17679199 299.7734375 1088.50488281 C293.82529177 1094.42355983 287.57475009 1099.79110799 281 1105 C280.42330566 1105.46696289 279.84661133 1105.93392578 279.25244141 1106.41503906 C248.53419557 1131.27869934 212.77643972 1149.49990893 175.79003906 1162.97900391 C173.40024228 1163.85353402 171.02287766 1164.75285522 168.6484375 1165.66796875 C147.58250592 1173.64365512 125.25010358 1178.50450874 103.12524414 1182.4206543 C99.67473606 1183.06029618 96.24667839 1183.78581721 92.8125 1184.5078125 C84.565053 1186.1663264 76.29889209 1187.17575222 67.9375 1188.0625 C67.15599579 1188.14649048 66.37449158 1188.23048096 65.56930542 1188.3170166 C6.53701135 1194.6272804 -54.54600361 1194.53697297 -113 1183 C-114.51512107 1182.73280363 -116.03078177 1182.46865516 -117.546875 1182.20703125 C-189.24486169 1169.60643081 -259.21432268 1140.44738334 -317 1096 C-317.63583008 1095.5157959 -318.27166016 1095.0315918 -318.92675781 1094.53271484 C-331.20471249 1085.1720022 -343.02443971 1075.26018729 -353.8046875 1064.1953125 C-355.81774908 1062.18225092 -357.88724958 1060.33403467 -360.0625 1058.5 C-363.91720293 1055.19266489 -367.23888486 1051.53343797 -370.58984375 1047.72265625 C-372.68607156 1045.35463229 -374.82696542 1043.03829763 -376.99072266 1040.73217773 C-383.44460963 1033.82185184 -389.26945551 1026.51443299 -395 1019 C-395.72123047 1018.06414062 -395.72123047 1018.06414062 -396.45703125 1017.109375 C-410.30778491 999.12897711 -422.36211759 980.16589642 -433.4375 960.375 C-433.86305176 959.61638672 -434.28860352 958.85777344 -434.72705078 958.07617188 C-436.73424512 954.45331199 -438.58709189 950.90672954 -440 947 C-422.54883388 936.02485256 -404.5743194 925.89547502 -386.71411133 915.60717773 C-379.46250267 911.42781756 -372.22615432 907.22320101 -365 903 C-356.68248208 898.1389704 -348.34794347 893.30858897 -340 888.5 C-327.63977482 881.37913592 -315.31532673 874.19816622 -303 867 C-289.17767376 858.92100998 -275.33958828 850.87106262 -261.46337891 842.88500977 C-260.43003418 842.29002686 -259.39668945 841.69504395 -258.33203125 841.08203125 C-257.42171143 840.55843018 -256.5113916 840.0348291 -255.57348633 839.49536133 C-253.81664006 838.47452048 -252.09743041 837.38677131 -250.41674805 836.24487305 C-248 835 -248 835 -245.84521484 835.08837891 C-243.50818687 836.24297833 -242.79107303 837.34366409 -241.4765625 839.5859375 C-241.02031494 840.34221436 -240.56406738 841.09849121 -240.09399414 841.87768555 C-239.60922607 842.70179932 -239.12445801 843.52591309 -238.625 844.375 C-219.87003028 875.11498065 -194.95291361 906.29485133 -166 928 C-165.38141113 928.47324707 -164.76282227 928.94649414 -164.12548828 929.43408203 C-138.46326349 948.99871393 -109.74921979 963.38646648 -78.25 970.6875 C-77.01378906 970.98205078 -75.77757813 971.27660156 -74.50390625 971.58007812 C-71.00691036 972.40694485 -67.50485871 973.20723434 -64 974 C-63.20400391 974.19158691 -62.40800781 974.38317383 -61.58789062 974.58056641 C-45.13605626 978.28258961 -28.02524393 978.37424702 -11.25 978.3125 C-10.24319183 978.31100952 -9.23638367 978.30951904 -8.19906616 978.3079834 C6.74559858 978.26826336 21.27411239 977.75017583 36 975 C36.81742676 974.86078125 37.63485352 974.7215625 38.47705078 974.578125 C73.76554623 968.53705901 109.72925296 951.86775404 132 923 C141.79686502 909.09539433 148.60918635 893.85424832 151 877 C151.18175781 875.87207031 151.36351563 874.74414062 151.55078125 873.58203125 C155.04250678 845.73931549 148.15220225 817.38000308 131.625 794.75 C123.98388153 785.00234031 115.90616967 776.4573153 106 769 C105.40364746 768.55043945 104.80729492 768.10087891 104.19287109 767.63769531 C92.70063373 759.05411271 80.60507894 751.82014923 68 745 C66.9486084 744.42910645 65.8972168 743.85821289 64.81396484 743.27001953 C46.74625093 733.52822153 28.24242787 725.01131502 9.4306488 716.81507874 C3.89776393 714.40226707 -1.60387879 711.92562436 -7.09814453 709.42602539 C-23.51907768 701.96674738 -40.12811637 694.95479783 -56.72894287 687.90759277 C-72.63161431 681.15580558 -88.51078742 674.37533693 -104.24853516 667.24560547 C-107.13505406 665.93886018 -110.02624301 664.64283425 -112.91796875 663.34765625 C-123.74657931 658.48357419 -134.47083849 653.4834955 -145 648 C-145.97614258 647.49404297 -146.95228516 646.98808594 -147.95800781 646.46679688 C-188.61786644 625.30471928 -227.77648539 600.96490148 -261.7578125 570.0234375 C-263.70460493 568.26657604 -265.68535882 566.56779748 -267.6875 564.875 C-277.06668452 556.70171063 -286.13439693 547.64226342 -294 538 C-294.4125 537.50129395 -294.825 537.00258789 -295.25 536.48876953 C-342.55923227 479.17560585 -367.93815132 407.5445982 -368.203125 333.23046875 C-368.20882507 331.95182449 -368.21452515 330.67318024 -368.22039795 329.35578918 C-368.23080733 326.66240047 -368.23671369 323.96904066 -368.24023438 321.27563477 C-368.24459191 318.5697664 -368.25839773 315.86422177 -368.28125 313.15844727 C-368.42408716 295.87189988 -367.81191939 279.07522619 -365 262 C-364.8260672 260.94375931 -364.8260672 260.94375931 -364.64862061 259.86618042 C-363.97776676 255.92654856 -363.18170978 252.02519111 -362.3125 248.125 C-362.05903809 246.97064453 -361.80557617 245.81628906 -361.54443359 244.62695312 C-357.13231915 225.17871261 -350.98242521 206.27215141 -343 188 C-342.66419922 187.22672363 -342.32839844 186.45344727 -341.98242188 185.65673828 C-331.56982443 161.9814159 -317.60907684 139.81871083 -301 120 C-300.17886719 118.99453125 -299.35773437 117.9890625 -298.51171875 116.953125 C-286.76581805 102.75295036 -273.70966887 89.14307792 -259 78 C-257.69429248 76.97916791 -256.38969757 75.95691186 -255.0859375 74.93359375 C-200.16022989 32.05938773 -134.76650487 9.74087818 -66 2 C-64.40478516 1.81993408 -64.40478516 1.81993408 -62.77734375 1.63623047 C-41.9151914 -0.59852436 -20.95002124 -0.30487435 0 0 Z " fill="#000000" transform="translate(2731,1930)"/>
<path d="M0 0 C79.2 0 158.4 0 240 0 C240.02013078 96.55899783 240.02013078 96.55899783 240.02565002 126.43972778 C240.02584736 127.50540088 240.02604469 128.57107397 240.02624801 129.66904018 C240.03287445 165.5511597 240.03812456 201.43327929 240.04234314 237.31539917 C240.0424812 238.48667329 240.04261925 239.6579474 240.04276149 240.86471468 C240.04575459 266.3212744 240.04852474 291.77783413 240.05106533 317.2343939 C240.05231264 329.71876261 240.0536092 342.2031313 240.05493164 354.6875 C240.05512778 356.5509909 240.05512778 356.5509909 240.05532788 358.45212807 C240.05958721 398.70036092 240.06709702 438.94859237 240.07629722 479.19682437 C240.0857365 520.5662301 240.091887 561.93563505 240.09391499 603.30504184 C240.09420313 609.15172422 240.09452877 614.99840659 240.09487724 620.84508896 C240.09494467 621.99577 240.09501209 623.14645105 240.09508156 624.33200121 C240.09626206 642.83505612 240.10089684 661.33810862 240.10683203 679.84116255 C240.11272871 698.45491079 240.11496562 717.06865665 240.11350138 735.68240578 C240.11274234 746.73338528 240.11475479 757.78435604 240.12079754 768.83533396 C240.12456358 776.22968626 240.12465235 783.62403288 240.12183181 791.01838559 C240.12033061 795.22366342 240.12035136 799.4289248 240.12488318 803.63420083 C240.1485801 827.02127216 239.76163858 850.27847943 237.375 873.5625 C237.29240936 874.37796295 237.20981873 875.1934259 237.12472534 876.03359985 C235.20954831 894.57899052 231.87988584 912.77551515 228 931 C227.79294434 931.9993457 227.58588867 932.99869141 227.37255859 934.02832031 C216.85571734 983.98097505 192.68824411 1034.17297286 158.0703125 1071.74609375 C156.22684843 1073.75303483 154.45220907 1075.79912242 152.6875 1077.875 C144.57175226 1087.15281785 135.72652665 1095.43765627 126 1103 C125.38527832 1103.48581543 124.77055664 1103.97163086 124.13720703 1104.47216797 C67.31399653 1149.35877408 -2.56711672 1170.42776522 -74 1176 C-75.07652832 1176.09498779 -76.15305664 1176.18997559 -77.26220703 1176.2878418 C-90.03029483 1177.30700589 -102.82441843 1177.19907628 -115.625 1177.1875 C-116.85265076 1177.18689575 -118.08030151 1177.1862915 -119.34515381 1177.18566895 C-137.31106866 1177.16162879 -155.12579308 1176.97350155 -173 1175 C-174.12132324 1174.88172852 -175.24264648 1174.76345703 -176.39794922 1174.64160156 C-206.16706292 1171.38139209 -235.67309712 1164.68894559 -264 1155 C-265.44995361 1154.51225098 -265.44995361 1154.51225098 -266.92919922 1154.01464844 C-310.46422903 1139.18892951 -351.02200055 1115.05354164 -384.86328125 1083.953125 C-386.76912347 1082.21103887 -388.71503302 1080.54045187 -390.6875 1078.875 C-400.08877019 1070.68246455 -409.03873242 1061.5953225 -417 1052 C-417.69480469 1051.19433594 -418.38960937 1050.38867188 -419.10546875 1049.55859375 C-439.55022446 1025.57852955 -455.9384708 999.29463218 -470.75 971.5625 C-471.55715454 970.0782251 -471.55715454 970.0782251 -472.38061523 968.56396484 C-472.86860596 967.63664551 -473.35659668 966.70932617 -473.859375 965.75390625 C-474.29733398 964.93220947 -474.73529297 964.1105127 -475.18652344 963.26391602 C-476 961 -476 961 -475.94750977 958.90869141 C-474.55472703 956.1030291 -472.68529755 955.25156369 -469.98046875 953.70703125 C-468.37473999 952.77515991 -468.37473999 952.77515991 -466.73657227 951.82446289 C-465.87142502 951.33407028 -465.87142502 951.33407028 -464.98880005 950.83377075 C-462.52688722 949.4379569 -460.08149418 948.01426215 -457.63456726 946.59239197 C-456.3521378 945.84765923 -455.06884822 945.10440584 -453.78474426 944.36256409 C-447.15081333 940.52682338 -440.60352932 936.55391496 -434.0625 932.5625 C-432.900086 931.85481245 -431.73756926 931.14729362 -430.57495117 930.43994141 C-428.23329376 929.01502794 -425.89208569 927.58938096 -423.55126953 926.16308594 C-417.53740173 922.49925774 -411.51888803 918.84307322 -405.5 915.1875 C-404.90970001 914.828909 -404.31940002 914.47031799 -403.71121216 914.1008606 C-395.71153515 909.24197189 -387.69698985 904.40878134 -379.6652832 899.60302734 C-371.69943335 894.83147273 -363.76578548 890.00711277 -355.83105469 885.18408203 C-349.39690184 881.27336088 -342.96173676 877.36503418 -336.5 873.5 C-318.59523673 862.78632326 -300.79338286 851.89727019 -283 841 C-279.88801431 843.87816394 -277.81930684 846.71886694 -275.75 850.41015625 C-275.14792725 851.47290771 -274.54585449 852.53565918 -273.92553711 853.63061523 C-273.29010986 854.76313721 -272.65468262 855.89565918 -272 857.0625 C-270.65248261 859.43275906 -269.29783351 861.79889291 -267.94140625 864.1640625 C-267.60436172 864.75221237 -267.2673172 865.34036224 -266.9200592 865.94633484 C-256.19855962 884.60568474 -244.33919949 902.8757503 -229.40234375 918.45703125 C-227 921 -227 921 -224.51171875 924.05078125 C-220.54589684 928.70738395 -215.80774329 932.24996023 -211 936 C-210.17757813 936.66128906 -209.35515625 937.32257812 -208.5078125 938.00390625 C-195.21556239 948.25260376 -180.28744115 955.19270123 -164 959 C-163.34032227 959.15549316 -162.68064453 959.31098633 -162.00097656 959.47119141 C-158.01524505 960.39471456 -154.01962464 961.23827856 -150 962 C-149.1018457 962.17273437 -148.20369141 962.34546875 -147.27832031 962.5234375 C-140.72434528 963.47617501 -134.05097119 963.24416105 -127.4375 963.25 C-126.26024353 963.25151062 -126.26024353 963.25151062 -125.0592041 963.25305176 C-112.50120786 963.24214905 -100.31952043 962.63187201 -88 960 C-87.31647461 959.85546387 -86.63294922 959.71092773 -85.92871094 959.56201172 C-59.61755382 953.75864707 -37.2052702 940.6568595 -22.47583008 917.69311523 C-17.84724012 910.21063288 -14.51027119 902.53593729 -11.73706055 894.18920898 C-11.19410405 892.57652568 -10.62372718 890.97301115 -10.03833008 889.37524414 C-7.16266868 881.30405437 -5.62622596 873.26512267 -4.3125 864.8125 C-3.99442383 862.86053711 -3.99442383 862.86053711 -3.66992188 860.86914062 C-1.82224309 849.38089178 -0.85162968 838.38908388 -0.8613348 826.75836086 C-0.85888433 825.31360568 -0.85599956 823.86885117 -0.85272202 822.42409763 C-0.84497313 818.45463837 -0.84338115 814.48519696 -0.8427946 810.51573106 C-0.84106249 806.19712351 -0.83357541 801.87852531 -0.82681805 797.55992323 C-0.81576818 789.99142624 -0.80839206 782.42293257 -0.80341911 774.85442924 C-0.79600789 763.60034167 -0.78292353 752.34626569 -0.76867336 741.09218495 C-0.74486314 722.16101264 -0.72565882 703.22983828 -0.70907402 684.29865837 C-0.69263653 665.55278173 -0.67415525 646.80690893 -0.65294075 628.06103706 C-0.65162314 626.89573808 -0.65030554 625.73043909 -0.648948 624.52982802 C-0.64224597 618.61193084 -0.63550739 612.6940337 -0.62875474 606.77613658 C-0.580984 564.85312149 -0.53780118 522.93010279 -0.49731445 481.00708008 C-0.45797018 440.27791075 -0.41654902 399.5487444 -0.37231445 358.81958008 C-0.37095192 357.56426279 -0.36958939 356.30894551 -0.36818558 355.0155883 C-0.35450027 342.4092455 -0.34077273 329.80290275 -0.32701423 317.19656003 C-0.29898723 291.51568892 -0.27124218 265.83481752 -0.2436676 240.15394592 C-0.2423994 238.97316535 -0.2411312 237.79238477 -0.23982458 236.57582297 C-0.20096548 200.38151806 -0.16330149 164.18721204 -0.1268158 127.99290466 C-0.1257794 126.9652516 -0.12474301 125.93759854 -0.12367522 124.87880447 C-0.08171312 83.25253705 -0.04101552 41.62626837 0 0 Z " fill="#000000" transform="translate(1922,1944)"/>
</svg>
